<svg xmlns="http://www.w3.org/2000/svg" viewBox="0 0 1200 560" role="img" aria-labelledby="title desc">
  <title id="title">Professional accreditation reporting illustration</title>
  <desc id="desc">Accreditation and quality assurance reporting dashboard with Islamic geometric details.</desc>
  <defs>
    <linearGradient id="bg" x1="0" y1="0" x2="1" y2="1">
      <stop offset="0" stop-color="#f8fafc"/>
      <stop offset=".5" stop-color="#ecfdf5"/>
      <stop offset="1" stop-color="#d1fae5"/>
    </linearGradient>
    <pattern id="geo" width="84" height="84" patternUnits="userSpaceOnUse" patternTransform="rotate(45)">
      <path d="M42 8 76 42 42 76 8 42Z" fill="none" stroke="#0f766e" stroke-opacity=".1" stroke-width="4"/>
    </pattern>
    <filter id="shadow" x="-20%" y="-20%" width="140%" height="140%">
      <feDropShadow dx="0" dy="18" stdDeviation="18" flood-color="#064e3b" flood-opacity=".16"/>
    </filter>
  </defs>
  <rect width="1200" height="560" fill="url(#bg)"/>
  <rect width="1200" height="560" fill="url(#geo)"/>
  <g filter="url(#shadow)">
    <rect x="146" y="78" width="908" height="404" rx="38" fill="#ffffff" opacity=".96"/>
    <rect x="204" y="138" width="330" height="284" rx="32" fill="#064e3b"/>
    <path d="M286 206h166M286 270h166M286 334h118" stroke="#d1fae5" stroke-width="18" stroke-linecap="round"/>
    <path d="m242 207 18 18 34-42m-52 88 18 18 34-42m-52 88 18 18 34-42" fill="none" stroke="#34d399" stroke-width="11" stroke-linecap="round" stroke-linejoin="round"/>
    <rect x="596" y="132" width="328" height="96" rx="28" fill="#ecfdf5"/>
    <rect x="636" y="170" width="154" height="20" rx="10" fill="#064e3b"/>
    <rect x="596" y="266" width="328" height="118" rx="28" fill="#f8fafc" stroke="#d1fae5" stroke-width="4"/>
    <path d="M648 340h36v-48h28v48h36v-76h28v76h36" fill="none" stroke="#059669" stroke-width="12" stroke-linecap="round" stroke-linejoin="round"/>
    <circle cx="874" cy="324" r="36" fill="#d1fae5"/>
    <path d="M858 324h32m-16-16v32" stroke="#059669" stroke-width="10" stroke-linecap="round"/>
  </g>
</svg>
