<svg xmlns="http://www.w3.org/2000/svg" viewBox="0 0 1200 560" role="img" aria-labelledby="title desc">
  <title id="title">Professional insight analytics dashboard</title>
  <desc id="desc">Islamic university analytics dashboard with emerald data visualization.</desc>
  <defs>
    <linearGradient id="bg" x1="0" y1="0" x2="1" y2="1">
      <stop offset="0" stop-color="#052e2b"/>
      <stop offset=".56" stop-color="#064e3b"/>
      <stop offset="1" stop-color="#0f172a"/>
    </linearGradient>
    <pattern id="geo" width="90" height="90" patternUnits="userSpaceOnUse" patternTransform="rotate(45)">
      <path d="M45 8 82 45 45 82 8 45Z" fill="none" stroke="#99f6e4" stroke-opacity=".16" stroke-width="4"/>
    </pattern>
    <filter id="shadow" x="-20%" y="-20%" width="140%" height="140%">
      <feDropShadow dx="0" dy="20" stdDeviation="20" flood-color="#022c22" flood-opacity=".28"/>
    </filter>
  </defs>
  <rect width="1200" height="560" fill="url(#bg)"/>
  <rect width="1200" height="560" fill="url(#geo)"/>
  <circle cx="990" cy="112" r="170" fill="#2dd4bf" opacity=".11"/>
  <circle cx="168" cy="456" r="190" fill="#10b981" opacity=".12"/>
  <g filter="url(#shadow)">
    <rect x="130" y="90" width="940" height="380" rx="36" fill="#f8fafc" opacity=".94"/>
    <rect x="178" y="136" width="246" height="288" rx="28" fill="#ecfdf5"/>
    <path d="M226 360h38V252h28v108h38V196h28v164h38" fill="none" stroke="#059669" stroke-width="16" stroke-linecap="round" stroke-linejoin="round"/>
    <rect x="476" y="144" width="438" height="22" rx="11" fill="#0f172a"/>
    <rect x="476" y="190" width="286" height="16" rx="8" fill="#94a3b8"/>
    <path d="M486 354c68-92 138-48 202-114s134-48 202 16" fill="none" stroke="#10b981" stroke-width="16" stroke-linecap="round"/>
    <path d="M486 386c82-58 154-20 236-66s118-22 170 18" fill="none" stroke="#14b8a6" stroke-width="12" stroke-linecap="round" opacity=".8"/>
    <circle cx="686" cy="240" r="14" fill="#064e3b"/>
    <circle cx="890" cy="256" r="14" fill="#064e3b"/>
    <rect x="940" y="150" width="82" height="82" rx="22" fill="#d1fae5"/>
    <path d="M968 190h26m-13-13v26" stroke="#059669" stroke-width="10" stroke-linecap="round"/>
  </g>
</svg>
