<svg xmlns="http://www.w3.org/2000/svg" viewBox="0 0 1200 900" role="img" aria-labelledby="title desc">
  <title id="title">Professional Islamic university tracer study hero</title>
  <desc id="desc">Emerald themed Islamic university dashboard illustration for alumni tracer study.</desc>
  <defs>
    <linearGradient id="heroBg" x1="0" y1="0" x2="1" y2="1">
      <stop offset="0" stop-color="#06251f"/>
      <stop offset=".52" stop-color="#064e3b"/>
      <stop offset="1" stop-color="#0f172a"/>
    </linearGradient>
    <linearGradient id="panel" x1="0" y1="0" x2="1" y2="1">
      <stop offset="0" stop-color="#ffffff" stop-opacity=".96"/>
      <stop offset="1" stop-color="#ecfdf5" stop-opacity=".86"/>
    </linearGradient>
    <linearGradient id="arch" x1="0" y1="0" x2="0" y2="1">
      <stop offset="0" stop-color="#6ee7b7"/>
      <stop offset="1" stop-color="#0f766e"/>
    </linearGradient>
    <filter id="shadow" x="-20%" y="-20%" width="140%" height="140%">
      <feDropShadow dx="0" dy="22" stdDeviation="24" flood-color="#022c22" flood-opacity=".35"/>
    </filter>
    <pattern id="geo" width="96" height="96" patternUnits="userSpaceOnUse" patternTransform="rotate(45)">
      <path d="M48 6 90 48 48 90 6 48Z" fill="none" stroke="#5eead4" stroke-opacity=".18" stroke-width="4"/>
      <path d="M48 24 72 48 48 72 24 48Z" fill="none" stroke="#a7f3d0" stroke-opacity=".14" stroke-width="3"/>
    </pattern>
  </defs>
  <rect width="1200" height="900" rx="44" fill="url(#heroBg)"/>
  <rect width="1200" height="900" rx="44" fill="url(#geo)" opacity=".95"/>
  <circle cx="170" cy="160" r="220" fill="#10b981" opacity=".13"/>
  <circle cx="1020" cy="760" r="260" fill="#2dd4bf" opacity=".13"/>

  <path d="M245 702V415c0-132 106-238 237-238s237 106 237 238v287" fill="none" stroke="url(#arch)" stroke-width="28" stroke-linecap="round"/>
  <path d="M482 177 604 58l122 119" fill="none" stroke="#5eead4" stroke-opacity=".82" stroke-width="22" stroke-linecap="round" stroke-linejoin="round"/>
  <path d="M825 704V465c0-86 70-156 156-156s156 70 156 156v239" fill="none" stroke="#2dd4bf" stroke-opacity=".55" stroke-width="22" stroke-linecap="round"/>
  <path d="M64 704V487c0-78 64-142 142-142s142 64 142 142v217" fill="none" stroke="#2dd4bf" stroke-opacity=".38" stroke-width="22" stroke-linecap="round"/>

  <g filter="url(#shadow)">
    <rect x="120" y="108" width="372" height="164" rx="30" fill="url(#panel)"/>
    <circle cx="174" cy="190" r="27" fill="#d1fae5"/>
    <path d="m162 190 10 10 22-25" fill="none" stroke="#059669" stroke-width="8" stroke-linecap="round" stroke-linejoin="round"/>
    <rect x="228" y="154" width="206" height="22" rx="11" fill="#0f172a"/>
    <rect x="228" y="194" width="174" height="16" rx="8" fill="#64748b"/>
  </g>

  <g filter="url(#shadow)">
    <rect x="640" y="156" width="372" height="244" rx="34" fill="#ecfdf5" opacity=".95"/>
    <rect x="682" y="212" width="78" height="140" rx="16" fill="#10b981" opacity=".22"/>
    <rect x="784" y="256" width="78" height="96" rx="16" fill="#14b8a6" opacity=".25"/>
    <rect x="886" y="188" width="78" height="164" rx="16" fill="#059669" opacity=".3"/>
    <path d="M682 318c64-86 128-48 180-92s94-20 122 6" fill="none" stroke="#047857" stroke-width="10" stroke-linecap="round"/>
    <circle cx="706" cy="318" r="8" fill="#047857"/>
    <circle cx="862" cy="226" r="8" fill="#047857"/>
    <circle cx="984" cy="232" r="8" fill="#047857"/>
  </g>

  <g filter="url(#shadow)">
    <rect x="315" y="490" width="560" height="260" rx="38" fill="#f8fafc" opacity=".96"/>
    <rect x="370" y="546" width="170" height="34" rx="17" fill="#064e3b"/>
    <rect x="370" y="606" width="410" height="20" rx="10" fill="#cbd5e1"/>
    <rect x="370" y="650" width="320" height="20" rx="10" fill="#d1d5db"/>
    <rect x="618" y="544" width="170" height="126" rx="28" fill="#d1fae5"/>
    <path d="M654 624h26v-50h20v50h26v-78h20v78h24" fill="none" stroke="#059669" stroke-width="10" stroke-linecap="round" stroke-linejoin="round"/>
    <circle cx="460" cy="706" r="12" fill="#10b981"/>
    <circle cx="510" cy="706" r="12" fill="#14b8a6"/>
    <circle cx="560" cy="706" r="12" fill="#84cc16"/>
  </g>

  <g opacity=".92">
    <path d="M556 406c0-52 42-94 94-94s94 42 94 94v126H556Z" fill="#0f766e"/>
    <path d="M650 275v54" stroke="#5eead4" stroke-width="10" stroke-linecap="round"/>
    <path d="M627 300c24 20 54 7 63-17-10 18-37 20-54 4" fill="#a7f3d0"/>
    <rect x="532" y="518" width="236" height="34" rx="17" fill="#115e59"/>
  </g>
</svg>
