<svg xmlns="http://www.w3.org/2000/svg" viewBox="0 0 1200 560" role="img" aria-labelledby="title desc">
  <title id="title">Professional survey management illustration</title>
  <desc id="desc">Digital questionnaire management in a Muslim university academic setting.</desc>
  <defs>
    <linearGradient id="bg" x1="0" y1="0" x2="1" y2="1">
      <stop offset="0" stop-color="#fffbeb"/>
      <stop offset=".45" stop-color="#ecfdf5"/>
      <stop offset="1" stop-color="#ccfbf1"/>
    </linearGradient>
    <filter id="shadow" x="-20%" y="-20%" width="140%" height="140%">
      <feDropShadow dx="0" dy="18" stdDeviation="18" flood-color="#064e3b" flood-opacity=".15"/>
    </filter>
  </defs>
  <rect width="1200" height="560" fill="url(#bg)"/>
  <path d="M60 560V302c0-96 78-174 174-174s174 78 174 174v258" fill="none" stroke="#047857" stroke-opacity=".14" stroke-width="22"/>
  <path d="M795 560V278c0-112 90-202 202-202s202 90 202 202v282" fill="none" stroke="#0f766e" stroke-opacity=".12" stroke-width="22"/>
  <g filter="url(#shadow)">
    <rect x="178" y="86" width="844" height="390" rx="38" fill="#ffffff" opacity=".96"/>
    <rect x="230" y="138" width="306" height="286" rx="32" fill="#ecfdf5"/>
    <rect x="586" y="136" width="352" height="286" rx="32" fill="#f8fafc" stroke="#d1fae5" stroke-width="4"/>
    <circle cx="310" cy="226" r="58" fill="#0f766e"/>
    <path d="M244 358c24-74 112-96 134 0" fill="#10b981" opacity=".82"/>
    <circle cx="442" cy="246" r="48" fill="#14b8a6"/>
    <path d="M388 370c20-62 92-82 110 0" fill="#0f766e" opacity=".74"/>
    <path d="M650 206h226" stroke="#064e3b" stroke-width="22" stroke-linecap="round"/>
    <path d="M650 272h226" stroke="#cbd5e1" stroke-width="18" stroke-linecap="round"/>
    <path d="M650 330h166" stroke="#cbd5e1" stroke-width="18" stroke-linecap="round"/>
    <rect x="842" y="318" width="58" height="58" rx="18" fill="#d1fae5"/>
    <path d="m856 348 14 14 28-34" fill="none" stroke="#059669" stroke-width="9" stroke-linecap="round" stroke-linejoin="round"/>
  </g>
</svg>
