<svg xmlns="http://www.w3.org/2000/svg" viewBox="0 0 1200 560" role="img" aria-labelledby="title desc">
  <title id="title">Professional alumni tracking dashboard</title>
  <desc id="desc">Emerald alumni profile tracking interface with Islamic university architecture.</desc>
  <defs>
    <linearGradient id="bg" x1="0" y1="0" x2="1" y2="1">
      <stop offset="0" stop-color="#ecfdf5"/>
      <stop offset=".58" stop-color="#d1fae5"/>
      <stop offset="1" stop-color="#f8fafc"/>
    </linearGradient>
    <filter id="shadow" x="-20%" y="-20%" width="140%" height="140%">
      <feDropShadow dx="0" dy="18" stdDeviation="18" flood-color="#064e3b" flood-opacity=".16"/>
    </filter>
  </defs>
  <rect width="1200" height="560" fill="url(#bg)"/>
  <path d="M0 420c122-116 218-94 318-180s202-86 304 8 212 92 336 6 192-52 242 18v288H0Z" fill="#0f766e" opacity=".1"/>
  <path d="M70 560V318c0-112 90-202 202-202s202 90 202 202v242" fill="none" stroke="#0f766e" stroke-opacity=".16" stroke-width="24"/>
  <path d="M910 560V346c0-84 68-152 152-152s152 68 152 152v214" fill="none" stroke="#0f766e" stroke-opacity=".14" stroke-width="20"/>
  <g filter="url(#shadow)">
    <rect x="188" y="84" width="824" height="392" rx="34" fill="#ffffff"/>
    <rect x="230" y="128" width="202" height="304" rx="28" fill="#064e3b"/>
    <circle cx="331" cy="218" r="54" fill="#a7f3d0"/>
    <path d="M270 350c18-58 102-86 122 0" fill="#10b981" opacity=".8"/>
    <rect x="474" y="138" width="454" height="24" rx="12" fill="#0f172a"/>
    <rect x="474" y="184" width="276" height="16" rx="8" fill="#94a3b8"/>
    <g fill="#ecfdf5" stroke="#a7f3d0" stroke-width="2">
      <rect x="474" y="240" width="184" height="142" rx="22"/>
      <rect x="686" y="240" width="184" height="142" rx="22"/>
    </g>
    <circle cx="520" cy="294" r="26" fill="#10b981"/>
    <rect x="564" y="276" width="62" height="14" rx="7" fill="#064e3b"/>
    <rect x="564" y="306" width="76" height="12" rx="6" fill="#94a3b8"/>
    <circle cx="732" cy="294" r="26" fill="#14b8a6"/>
    <rect x="776" y="276" width="62" height="14" rx="7" fill="#064e3b"/>
    <rect x="776" y="306" width="76" height="12" rx="6" fill="#94a3b8"/>
    <path d="M476 430h396" stroke="#d1d5db" stroke-width="14" stroke-linecap="round"/>
    <path d="M476 430h248" stroke="#10b981" stroke-width="14" stroke-linecap="round"/>
  </g>
</svg>
